<svg width="28" height="28" viewBox="0 0 28 28" fill="none" xmlns="http://www.w3.org/2000/svg">
<path fill-rule="evenodd" clip-rule="evenodd" d="M15.0895 13.9765H24.5966C25.229 13.9765 25.7236 14.5272 25.6606 15.156C25.026 21.4864 19.342 26.3304 12.6943 25.5954C7.34513 25.005 2.99696 20.6569 2.40546 15.3077C1.67279 8.66003 6.51446 2.97486 12.846 2.34136C13.476 2.27836 14.0255 2.77186 14.0255 3.4042V12.9137C14.0255 13.5005 14.5015 13.9765 15.0895 13.9765ZM23.6516 10.1136C23.2246 7.13743 20.8645 4.77726 17.8883 4.35026V10.1136H23.6516ZM24.6935 12.0578H16.9165C16.3798 12.0578 15.9435 11.6238 15.9435 11.0859V3.30777C15.9435 2.7711 16.3798 2.33594 16.9165 2.33594C21.7406 2.33594 25.6665 6.26177 25.6665 11.0859C25.6665 11.6238 25.2301 12.0578 24.6935 12.0578Z" fill="#173400"/>
<mask id="mask0_2054_1399" style="mask-type:luminance" maskUnits="userSpaceOnUse" x="2" y="2" width="24" height="24">
<path fill-rule="evenodd" clip-rule="evenodd" d="M15.0895 13.9765H24.5966C25.229 13.9765 25.7236 14.5272 25.6606 15.156C25.026 21.4864 19.342 26.3304 12.6943 25.5954C7.34513 25.005 2.99696 20.6569 2.40546 15.3077C1.67279 8.66003 6.51446 2.97486 12.846 2.34136C13.476 2.27836 14.0255 2.77186 14.0255 3.4042V12.9137C14.0255 13.5005 14.5015 13.9765 15.0895 13.9765ZM23.6516 10.1136C23.2246 7.13743 20.8645 4.77726 17.8883 4.35026V10.1136H23.6516ZM24.6935 12.0578H16.9165C16.3798 12.0578 15.9435 11.6238 15.9435 11.0859V3.30777C15.9435 2.7711 16.3798 2.33594 16.9165 2.33594C21.7406 2.33594 25.6665 6.26177 25.6665 11.0859C25.6665 11.6238 25.2301 12.0578 24.6935 12.0578Z" fill="white"/>
</mask>
<g mask="url(#mask0_2054_1399)">
<rect width="28" height="28" fill="#173400"/>
</g>
</svg>
