<svg width="28" height="28" viewBox="0 0 28 28" fill="none" xmlns="http://www.w3.org/2000/svg">
<path d="M10.6566 24.2382V20.6708C10.6566 19.7602 11.4002 19.022 12.3175 19.022H15.6707C16.1112 19.022 16.5337 19.1957 16.8452 19.5049C17.1567 19.8141 17.3317 20.2335 17.3317 20.6708V24.2382C17.3289 24.6168 17.4784 24.9808 17.7471 25.2495C18.0158 25.5182 18.3814 25.6693 18.7628 25.6693H21.0505C22.1189 25.672 23.1446 25.2526 23.901 24.5035C24.6575 23.7545 25.0827 22.7374 25.0827 21.6767V11.5139C25.0827 10.6571 24.7001 9.84442 24.0381 9.29472L16.2557 3.12445C14.902 2.04259 12.9623 2.07752 11.649 3.20741L4.0442 9.29472C3.35088 9.82821 2.93649 10.6433 2.91602 11.5139V21.6664C2.91602 23.8771 4.72129 25.6693 6.94822 25.6693H9.18369C9.97578 25.6693 10.6195 25.0349 10.6253 24.2485L10.6566 24.2382Z" fill="#173400"/>
</svg>
