<svg width="28" height="28" viewBox="0 0 28 28" fill="none" xmlns="http://www.w3.org/2000/svg">
<path fill-rule="evenodd" clip-rule="evenodd" d="M12.5967 15.4178L14.5707 14.6198L15.4037 12.5874L13.4297 13.3854L12.5967 15.4178ZM18.5798 10.9931L16.5428 15.9608C16.4238 16.2525 16.1928 16.4823 15.9011 16.6013L10.986 18.5858C10.8425 18.643 10.6943 18.6698 10.5496 18.6698C10.2335 18.6698 9.93713 18.5333 9.7178 18.3081C9.6968 18.2883 9.67463 18.272 9.6548 18.2521C9.6443 18.2393 9.6373 18.2241 9.62797 18.2113C9.3503 17.8893 9.24763 17.4343 9.4203 17.0131L11.4573 12.0455C11.5763 11.7538 11.8085 11.524 12.1001 11.4061L17.0153 9.42047C17.475 9.23847 17.9778 9.36914 18.2975 9.70747C18.637 10.0295 18.7676 10.5335 18.5798 10.9931M14.0007 2.33594C7.56765 2.33594 2.33398 7.5696 2.33398 14.0026C2.33398 20.4356 7.56765 25.6693 14.0007 25.6693C20.4337 25.6693 25.6673 20.4356 25.6673 14.0026C25.6673 7.5696 20.4337 2.33594 14.0007 2.33594" fill="#173400"/>
<mask id="mask0_2054_2869" style="mask-type:luminance" maskUnits="userSpaceOnUse" x="2" y="2" width="24" height="24">
<path fill-rule="evenodd" clip-rule="evenodd" d="M12.5967 15.4178L14.5707 14.6198L15.4037 12.5874L13.4297 13.3854L12.5967 15.4178ZM18.5798 10.9931L16.5428 15.9608C16.4238 16.2525 16.1928 16.4823 15.9011 16.6013L10.986 18.5858C10.8425 18.643 10.6943 18.6698 10.5496 18.6698C10.2335 18.6698 9.93713 18.5333 9.7178 18.3081C9.6968 18.2883 9.67463 18.272 9.6548 18.2521C9.6443 18.2393 9.6373 18.2241 9.62797 18.2113C9.3503 17.8893 9.24763 17.4343 9.4203 17.0131L11.4573 12.0455C11.5763 11.7538 11.8085 11.524 12.1001 11.4061L17.0153 9.42047C17.475 9.23847 17.9778 9.36914 18.2975 9.70747C18.637 10.0295 18.7676 10.5335 18.5798 10.9931M14.0007 2.33594C7.56765 2.33594 2.33398 7.5696 2.33398 14.0026C2.33398 20.4356 7.56765 25.6693 14.0007 25.6693C20.4337 25.6693 25.6673 20.4356 25.6673 14.0026C25.6673 7.5696 20.4337 2.33594 14.0007 2.33594" fill="white"/>
</mask>
<g mask="url(#mask0_2054_2869)">
<rect width="28" height="28" fill="#173400"/>
</g>
</svg>
