<svg width="24" height="24" viewBox="0 0 24 24" fill="none" xmlns="http://www.w3.org/2000/svg">
<path d="M17.4165 0C21.552 0 23.9957 2.63816 23.9957 7.11715V7.16684H18.9141C16.5493 7.17146 14.6336 9.24686 14.6293 11.8088C14.6261 14.3764 16.544 16.4611 18.9141 16.4645H24V16.8725C24 21.3514 21.5563 24 17.4208 24H6.58027C2.44373 24 0 21.3514 0 16.8725V7.11715C0 2.63816 2.44373 0 6.58027 0H17.4165ZM12.4597 5.16654H5.68747C5.184 5.16886 4.77547 5.61144 4.77332 6.15802C4.7712 6.70692 5.1808 7.15412 5.68747 7.15644H12.4683C12.9749 7.15412 13.3845 6.70692 13.3824 6.15687C13.3803 5.60797 12.9664 5.16424 12.4597 5.16654Z" fill="#173400"/>
<path opacity="0.4" d="M16.8457 12.3987C17.0966 13.6669 18.0974 14.5592 19.2399 14.536H23.1398C23.6152 14.536 24.0008 14.0986 24.0008 13.5579V10.1824C23.9998 9.64289 23.6152 9.20429 23.1398 9.20312H19.1481C17.8484 9.20777 16.7987 10.4064 16.8008 11.8835C16.8008 12.0564 16.8161 12.2293 16.8457 12.3987Z" fill="#173400"/>
<path d="M19.2 13.1979C19.8627 13.1979 20.4 12.601 20.4 11.8646C20.4 11.1282 19.8627 10.5312 19.2 10.5312C18.5373 10.5312 18 11.1282 18 11.8646C18 12.601 18.5373 13.1979 19.2 13.1979Z" fill="#173400"/>
</svg>
