<svg width="32" height="32" viewBox="0 0 32 32" fill="none" xmlns="http://www.w3.org/2000/svg">
<g opacity="0.5">
<path fill-rule="evenodd" clip-rule="evenodd" d="M14.3952 17.6146L15.3472 15.2919L17.6032 14.3799L16.6512 16.7026L14.3952 17.6146ZM20.9096 11.0887C20.5443 10.702 19.9709 10.5527 19.4443 10.7607L13.8269 13.03C13.4936 13.1647 13.2283 13.4273 13.0923 13.7607L10.7656 19.438C10.5683 19.9193 10.6843 20.4393 11.0029 20.8087C11.0136 20.822 11.0216 20.8393 11.0336 20.854C11.0549 20.8767 11.0803 20.8953 11.1043 20.918C11.3549 21.1753 11.6949 21.3313 12.0549 21.3313C12.2216 21.3313 12.3909 21.3007 12.5536 21.2353L18.1709 18.9673C18.5043 18.8313 18.7696 18.5687 18.9056 18.2353L21.2323 12.558C21.4483 12.0327 21.2989 11.4567 20.9096 11.0887ZM15.9993 26.6641C10.118 26.6641 5.33268 21.8787 5.33268 15.9974C5.33268 10.1161 10.118 5.33073 15.9993 5.33073C21.8807 5.33073 26.666 10.1161 26.666 15.9974C26.666 21.8787 21.8807 26.6641 15.9993 26.6641ZM15.9993 2.66406C8.64735 2.66406 2.66602 8.6454 2.66602 15.9974C2.66602 23.3494 8.64735 29.3307 15.9993 29.3307C23.3513 29.3307 29.3327 23.3494 29.3327 15.9974C29.3327 8.6454 23.3513 2.66406 15.9993 2.66406Z" fill="#A8E06C"/>
<mask id="mask0_1469_651709" style="mask-type:luminance" maskUnits="userSpaceOnUse" x="2" y="2" width="28" height="28">
<path fill-rule="evenodd" clip-rule="evenodd" d="M14.3952 17.6146L15.3472 15.2919L17.6032 14.3799L16.6512 16.7026L14.3952 17.6146ZM20.9096 11.0887C20.5443 10.702 19.9709 10.5527 19.4443 10.7607L13.8269 13.03C13.4936 13.1647 13.2283 13.4273 13.0923 13.7607L10.7656 19.438C10.5683 19.9193 10.6843 20.4393 11.0029 20.8087C11.0136 20.822 11.0216 20.8393 11.0336 20.854C11.0549 20.8767 11.0803 20.8953 11.1043 20.918C11.3549 21.1753 11.6949 21.3313 12.0549 21.3313C12.2216 21.3313 12.3909 21.3007 12.5536 21.2353L18.1709 18.9673C18.5043 18.8313 18.7696 18.5687 18.9056 18.2353L21.2323 12.558C21.4483 12.0327 21.2989 11.4567 20.9096 11.0887ZM15.9993 26.6641C10.118 26.6641 5.33268 21.8787 5.33268 15.9974C5.33268 10.1161 10.118 5.33073 15.9993 5.33073C21.8807 5.33073 26.666 10.1161 26.666 15.9974C26.666 21.8787 21.8807 26.6641 15.9993 26.6641ZM15.9993 2.66406C8.64735 2.66406 2.66602 8.6454 2.66602 15.9974C2.66602 23.3494 8.64735 29.3307 15.9993 29.3307C23.3513 29.3307 29.3327 23.3494 29.3327 15.9974C29.3327 8.6454 23.3513 2.66406 15.9993 2.66406Z" fill="white"/>
</mask>
<g mask="url(#mask0_1469_651709)">
<rect width="32" height="32" fill="#A8E06C"/>
</g>
</g>
</svg>
