<svg width="32" height="32" viewBox="0 0 32 32" fill="none" xmlns="http://www.w3.org/2000/svg">
<g opacity="0.5">
<path d="M12.5883 26.5257V22.8456C12.5882 21.9096 13.3514 21.149 14.2968 21.1427H17.7601C18.7101 21.1427 19.4802 21.9051 19.4802 22.8456V22.8456V26.5371C19.48 27.3318 20.1207 27.9814 20.9233 28H23.2321C25.5338 28 27.3996 26.1528 27.3996 23.8742V23.8742V13.4054C27.3873 12.509 26.9622 11.6672 26.2452 11.1196L18.3489 4.82236C16.9655 3.72588 14.9991 3.72588 13.6157 4.82236L5.75404 11.1311C5.03432 11.6764 4.60847 12.5196 4.59961 13.4168V23.8742C4.59961 26.1528 6.46546 28 8.7671 28H11.076C11.8984 28 12.5652 27.3399 12.5652 26.5257V26.5257" stroke="#A8E06C" stroke-width="2" stroke-linecap="round" stroke-linejoin="round"/>
</g>
</svg>
