<svg width="25" height="24" viewBox="0 0 25 24" fill="none" xmlns="http://www.w3.org/2000/svg">
<g id="outline/apple" clip-path="url(#clip0_2001_909)">
<path id="Vector" d="M16.2291 8.20761C15.7561 8.17061 15.2481 8.28361 14.4701 8.58061C14.5361 8.55561 13.7281 8.87061 13.5021 8.95061C13.0001 9.12561 12.5871 9.22161 12.1241 9.22161C11.6661 9.22161 11.2441 9.12961 10.7581 8.96661C10.6031 8.91361 10.4471 8.85661 10.2531 8.78061C10.1711 8.74861 9.87106 8.62861 9.80506 8.60361C9.15706 8.34961 8.79206 8.25361 8.48906 8.26161C7.33706 8.27661 6.24606 8.94161 5.61306 10.0436C4.32106 12.2876 5.03606 16.3426 6.92506 19.0746C7.93106 20.5186 8.48106 21.0346 8.70306 21.0276C8.92506 21.0176 9.08806 20.9706 9.48606 20.8026L9.65306 20.7316C10.6581 20.3026 11.3631 20.1136 12.4241 20.1136C13.4451 20.1136 14.1271 20.2996 15.0921 20.7156L15.2601 20.7876C15.6581 20.9576 15.8021 20.9956 16.0521 20.9896C16.4101 20.9846 16.8511 20.5726 17.8301 19.1356C18.0981 18.7446 18.3351 18.3326 18.5401 17.9156C18.4053 17.8046 18.2746 17.6889 18.1481 17.5686C16.8591 16.3406 16.0621 14.6846 16.0401 12.6386C16.0185 11.1248 16.5161 9.64922 17.4501 8.45761C17.0581 8.3129 16.6464 8.22861 16.2291 8.20761ZM16.3841 6.21361C17.0921 6.26161 19.1201 6.47761 20.4401 8.40961C20.3321 8.46961 18.0161 9.81361 18.0401 12.6216C18.0761 15.9816 20.9801 17.0976 21.0161 17.1096C20.9921 17.1936 20.5481 18.7056 19.4801 20.2656C18.5561 21.6216 17.5961 22.9656 16.0841 22.9896C14.5961 23.0256 14.1161 22.1136 12.4241 22.1136C10.7201 22.1136 10.1921 22.9656 8.78806 23.0256C7.32406 23.0736 6.22006 21.5616 5.28406 20.2176C3.37606 17.4576 1.92406 12.4416 3.88006 9.04561C4.85206 7.35361 6.58006 6.28561 8.46406 6.26161C9.89206 6.22561 11.2481 7.22161 12.1241 7.22161C12.9881 7.22161 14.5361 6.06961 16.3841 6.21361ZM15.2441 4.38961C14.4641 5.32561 13.1921 6.05761 11.9561 5.96161C11.7881 4.68961 12.4121 3.35761 13.1321 2.52961C13.9361 1.59361 15.2801 0.897609 16.3961 0.849609C16.5401 2.14561 16.0241 3.45361 15.2441 4.38961Z" fill="white"/>
</g>
<defs>
<clipPath id="clip0_2001_909">
<rect width="24" height="24" fill="white" transform="translate(0.5)"/>
</clipPath>
</defs>
</svg>
