<svg width="200" height="200" viewBox="0 0 200 200" fill="none" xmlns="http://www.w3.org/2000/svg">
<path d="M20 50C20 38.9543 28.9543 30 40 30H110C121.046 30 130 38.9543 130 50V90C130 101.046 121.046 110 110 110H90L60 140V110H40C28.9543 110 20 101.046 20 90V50Z" fill="#173400"/>
<path d="M150 70V126C150 128.209 148.209 130 146 130H98.2843L80.6173 147.667C83.4154 149.156 86.6091 150 90 150H110L140 180V150H160C171.046 150 180 141.046 180 130V90C180 78.9543 171.046 70 160 70H150Z" fill="#173400"/>
</svg>
