<svg width="354" height="317" viewBox="0 0 354 317" fill="none" xmlns="http://www.w3.org/2000/svg">
<path d="M0.333374 18C0.333374 8.05887 8.39225 0 18.3334 0H354.333V317H0.333374V18Z" fill="#C7EDF3"/>
<path d="M175.216 244.85C200.141 230.493 244.24 226.664 272.68 247.722C238.488 272.616 224.7 271.47 175.216 244.85Z" fill="url(#paint0_linear_1336_75403)" stroke="#2D5323" stroke-width="0.638213"/>
<path d="M169.784 240.055C201.1 240.054 218.676 292.076 272.68 247.713C226.345 320.801 115.46 318.248 75.196 242.288L84.4631 244.522C91.4933 279.313 131.437 240.055 169.784 240.055Z" fill="#76B520" stroke="#2D5323" stroke-width="0.638213"/>
<path d="M97.8842 271.339L88.6172 261.766L109.708 271.339C126.324 260.49 137.189 256.341 157.641 256.341C138.117 259.055 119.614 265.336 114.501 273.892L157.641 286.337C173.15 276.477 182.497 272.107 200.141 271.339C182.373 274.769 173.652 277.833 162.754 287.614L207.491 295.911L200.141 297.825L137.189 284.742C142.533 289.837 146.719 292.702 154.765 297.825C147.735 295.911 141.663 292.081 132.716 283.785L97.8842 271.339Z" fill="#2D5323" stroke="#2D5323" stroke-width="0.638213"/>
<path d="M230.047 152.471C204.977 138.368 179.21 102.426 182.865 67.2594C221.736 83.9564 227.774 96.3878 230.047 152.471Z" fill="url(#paint1_linear_1336_75403)" stroke="#2D5323" stroke-width="0.638213"/>
<path d="M228.683 159.582C212.727 132.673 248.599 91.0658 182.857 67.2638C269.443 69.8407 323.739 166.422 278.8 239.72L276.003 230.619C302.399 206.853 248.221 192.531 228.683 159.582Z" fill="#76B520" stroke="#2D5323" stroke-width="0.638213"/>
<path d="M292.273 205.423L288.745 218.264L286.249 195.264C268.434 186.513 259.324 179.291 248.904 161.718C261.19 177.111 276.029 189.81 286.007 189.844L274.751 146.435C258.353 138.132 249.824 132.327 240.174 117.557C252.182 131.078 259.265 137.01 273.246 141.391L257.602 98.7226L262.996 104.062L283.796 164.821C285.464 157.634 285.8 152.577 286.115 143.053C288.047 150.07 287.841 157.238 285.251 169.153L292.273 205.423Z" fill="#2D5323" stroke="#2D5323" stroke-width="0.638213"/>
<path d="M122.078 152.345C122.383 181.078 104.096 221.332 71.7707 235.755C66.8154 193.79 74.5777 182.353 122.078 152.345Z" fill="url(#paint2_linear_1336_75403)" stroke="#2D5323" stroke-width="0.638213"/>
<path d="M128.927 149.969C113.568 177.223 59.5496 167.004 71.7783 235.759C30.7202 159.59 87.3313 64.3439 173.368 66.5586L166.874 73.5277C133.064 62.5827 147.734 116.598 128.927 149.969Z" fill="#76B520" stroke="#2D5323" stroke-width="0.638213"/>
<path d="M136.888 72.055L149.787 68.6855L131.089 82.3445C132.408 102.126 130.699 113.616 120.669 131.414C127.876 113.092 131.47 93.9096 126.51 85.2638L94.4918 116.703C95.4904 135.035 94.7201 145.313 86.7361 161.044C92.458 143.899 94.0613 134.807 90.8703 120.526L61.6884 155.39L63.6222 148.055L105.915 99.6872C98.8475 101.838 94.2937 104.077 85.877 108.566C90.9958 103.387 97.3154 99.9808 108.944 96.2634L136.888 72.055Z" fill="#2D5323" stroke="#2D5323" stroke-width="0.638213"/>
<defs>
<linearGradient id="paint0_linear_1336_75403" x1="223.948" y1="233.003" x2="223.948" y2="265.633" gradientUnits="userSpaceOnUse">
<stop stop-color="#64A839"/>
<stop offset="1" stop-color="#2E5119"/>
</linearGradient>
<linearGradient id="paint1_linear_1336_75403" x1="195.011" y1="116.632" x2="223.107" y2="99.9733" gradientUnits="userSpaceOnUse">
<stop stop-color="#64A839"/>
<stop offset="1" stop-color="#2E5119"/>
</linearGradient>
<linearGradient id="paint2_linear_1336_75403" x1="108.516" y1="200.564" x2="80.0594" y2="184.527" gradientUnits="userSpaceOnUse">
<stop stop-color="#64A839"/>
<stop offset="1" stop-color="#2E5119"/>
</linearGradient>
</defs>
</svg>
