<svg width="200" height="200" viewBox="0 0 200 200" fill="none" xmlns="http://www.w3.org/2000/svg">
<path fill-rule="evenodd" clip-rule="evenodd" d="M100 116.667C95.4 116.667 91.6667 120.4 91.6667 125C91.6667 129.6 95.4 133.333 100 133.333C104.6 133.333 108.333 129.6 108.333 125C108.333 120.4 104.6 116.667 100 116.667ZM100 150C86.2167 150 75 138.783 75 125C75 111.217 86.2167 99.9998 100 99.9998C113.783 99.9998 125 111.217 125 125C125 138.783 113.783 150 100 150ZM83.3333 50.9248C83.3333 41.2248 90.8083 33.3332 100 33.3332C109.192 33.3332 116.667 41.2248 116.667 50.9248V66.6665H83.3333V50.9248ZM141.667 66.6665H133.333V50.9248C133.333 32.0415 118.383 16.6665 100 16.6665C81.6167 16.6665 66.6667 32.0415 66.6667 50.9248V66.6665H58.3333C44.55 66.6665 33.3333 77.8832 33.3333 91.6665V158.333C33.3333 172.117 44.55 183.333 58.3333 183.333H141.667C155.45 183.333 166.667 172.117 166.667 158.333V91.6665C166.667 77.8832 155.45 66.6665 141.667 66.6665Z" fill="#173400"/>
<mask id="mask0_1396_604620" style="mask-type:luminance" maskUnits="userSpaceOnUse" x="33" y="16" width="134" height="168">
<path fill-rule="evenodd" clip-rule="evenodd" d="M100 116.667C95.4 116.667 91.6667 120.4 91.6667 125C91.6667 129.6 95.4 133.333 100 133.333C104.6 133.333 108.333 129.6 108.333 125C108.333 120.4 104.6 116.667 100 116.667ZM100 150C86.2167 150 75 138.783 75 125C75 111.217 86.2167 99.9998 100 99.9998C113.783 99.9998 125 111.217 125 125C125 138.783 113.783 150 100 150ZM83.3333 50.9248C83.3333 41.2248 90.8083 33.3332 100 33.3332C109.192 33.3332 116.667 41.2248 116.667 50.9248V66.6665H83.3333V50.9248ZM141.667 66.6665H133.333V50.9248C133.333 32.0415 118.383 16.6665 100 16.6665C81.6167 16.6665 66.6667 32.0415 66.6667 50.9248V66.6665H58.3333C44.55 66.6665 33.3333 77.8832 33.3333 91.6665V158.333C33.3333 172.117 44.55 183.333 58.3333 183.333H141.667C155.45 183.333 166.667 172.117 166.667 158.333V91.6665C166.667 77.8832 155.45 66.6665 141.667 66.6665Z" fill="white"/>
</mask>
<g mask="url(#mask0_1396_604620)">
<rect width="200" height="200" fill="#173400"/>
</g>
</svg>
