<svg width="117" height="30" viewBox="0 0 117 30" fill="none" xmlns="http://www.w3.org/2000/svg">
<path d="M14.9935 0.988037H11.7443L16.6181 5.79408L17.4642 5.08333L14.9935 0.988037Z" fill="#FEB100"/>
<path d="M20.1718 3.69567L19.1565 4.10181L17.295 0.988037H19.4949L20.1718 3.69567Z" fill="#FEB100"/>
<path d="M23.2179 3.01876L22.1349 3.22183L21.458 0.988037H23.2179V3.01876Z" fill="#FEB100"/>
<path d="M26.264 3.22183L25.1471 3.01876V0.988037H26.9071L26.264 3.22183Z" fill="#FEB100"/>
<path d="M29.107 4.10181L28.1932 3.69567L28.8701 0.988037H31.0362L29.107 4.10181Z" fill="#FEB100"/>
<path d="M31.7131 5.79408L30.867 5.08333L33.27 0.988037H36.6207L31.7131 5.79408Z" fill="#FEB100"/>
<path d="M33.1685 7.18174L33.8792 8.09556L37.433 6.031V3.01876L33.1685 7.18174Z" fill="#FEB100"/>
<path d="M37.433 8.26479L35.7407 9.34784H37.433V8.26479Z" fill="#FEB100"/>
<path d="M12.7935 12.0555L10.8644 11.4124V8.26479L13.5381 9.82168L12.7935 12.0555Z" fill="#FEB100"/>
<path d="M18.6488 15L14.7566 12.9693C16.0427 4.74487 27.2794 1.73263 32.4239 9.82168L18.6488 15Z" fill="#FEB100"/>
<path d="M26.0271 29.012H22.7441C19.3067 24.4499 16.712 22.4736 10.8305 20.0091V17.0984C18.878 20.2358 21.8545 23.096 26.0271 29.012Z" fill="#FEB100"/>
<path d="M10.8644 14.12V11.4124C13.8226 12.14 15.5143 12.8499 18.5811 14.56C25.694 10.7525 29.8532 9.5975 37.5345 9.24631V11.9539C30.3356 12.424 26.7649 13.3688 21.1534 16.2523L23.7594 18.283C28.7075 15.9355 31.7569 15.3722 37.5345 15.0339V17.6738C32.4601 17.973 29.9001 18.5245 25.8917 20.2799L28.024 22.6829C31.3093 21.2301 33.4146 20.8025 37.5345 20.5845V23.2921C34.0384 23.5018 32.3073 23.8623 29.5808 24.8829L31.1716 27.4551C33.2595 26.6287 34.6961 26.3834 37.5345 26.169V28.9782H28.9378C24.6056 21.0583 19.1565 16.9292 10.8644 14.12Z" fill="white"/>
<path d="M18.818 28.9782H15.0612C13.5816 27.5996 12.7102 26.8937 10.8644 26.1013V23.0891C13.8766 24.3413 16.8211 26.5074 18.818 28.9782Z" fill="white"/>
<path d="M12.4889 6.80944C14.012 7.8248 14.4597 8.71 15.2304 9.92321C13.9342 6.06775 10.2879 3.84425 6.05456 4.3104C5.98711 4.31783 5.95351 4.23913 6.01154 4.20395C7.40405 3.35965 11.0408 3.76895 13.2335 5.92946C9.34132 0.378821 3.58761 0.649583 0 5.52331C5.34757 9.11092 9.74746 9.04323 12.4889 6.80944Z" fill="white"/>
<path d="M46.5749 23.0845H42.868V13.2081H41.1053V10.3826H42.868V10.0715C42.868 7.3238 44.5011 5.4574 47.534 5.4574C49.2189 5.4574 50.4373 6.18322 51.0335 6.70167L49.7633 9.34573C49.2967 8.77544 48.6227 8.30884 47.845 8.30884C46.9637 8.30884 46.5749 8.80136 46.5749 9.63087V10.3826H49.7633V13.2081H46.5749V23.0845ZM54.1008 23.3696C52.1307 23.3696 50.7568 22.3068 50.7568 20.259C50.7568 18.3407 51.9752 17.2261 54.3859 16.3966L58.2743 14.9449C58.1446 13.8821 57.6521 13.2859 56.2523 13.2859C54.6451 13.2859 53.1676 14.1932 52.2862 15.4634L50.4198 12.7675C51.69 11.3936 53.7897 10.1234 56.5115 10.1234C59.7259 10.1234 61.5923 11.8343 61.5923 15.0227V19.3776C61.5923 19.9479 61.7997 20.1293 62.2663 20.1293H63.018V23.0845H60.8405C59.4667 23.0845 58.2224 22.4623 58.2224 20.6478V19.7924C57.8077 21.4514 56.693 23.3696 54.1008 23.3696ZM54.1786 19.7146C54.1786 20.3108 54.5933 20.6478 55.4747 20.6478C57.2374 20.6478 58.2224 19.7664 58.2224 18.2111V17.3298L55.5265 18.4444C54.5155 18.8592 54.1786 19.2221 54.1786 19.7146ZM68.4766 23.0845H64.7698V10.3826H68.4766V14.3746C68.8914 12.249 70.1357 10.1234 72.5723 10.1234C74.4387 10.1234 75.4756 11.3158 75.4756 13.3118C75.4756 14.6857 75.0609 15.7744 74.7498 16.2669H71.1726C71.6392 15.8003 72.0798 14.8931 72.0798 14.1672C72.0798 13.4414 71.7428 12.8971 70.9393 12.8971C69.6691 12.8971 68.4766 14.2709 68.4766 16.3706V23.0845ZM80.5517 23.0845H76.8448V10.3826H80.5517V14.0376C80.9406 11.9639 82.0811 10.1234 84.6993 10.1234C87.0323 10.1234 88.3284 11.601 88.3284 14.0636C88.7172 11.9639 89.8578 10.1234 92.4759 10.1234C94.8089 10.1234 96.105 11.601 96.105 14.2191V23.0845H92.3981V15.5152C92.3981 13.8562 91.8797 13.0008 90.3762 13.0008C88.8987 13.0008 88.3284 13.9858 88.3284 16.0596V23.0845H84.6215V15.5152C84.6215 13.8562 84.1031 13.0008 82.5996 13.0008C81.122 13.0008 80.5517 13.9858 80.5517 16.0596V23.0845ZM102.348 8.87913H98.6407V5.71662H102.348V8.87913ZM102.348 23.0845H98.6407V10.3826H102.348V23.0845ZM115.96 23.0845H104.347V20.3626L108.754 15.5411L111.476 13.2081L107.717 13.3896H104.71V10.3826H115.701V13.1044L111.217 17.6927L108.339 20.233L112.254 20.0775H115.96V23.0845Z" fill="white"/>
</svg>
