<svg width="25" height="24" viewBox="0 0 25 24" fill="none" xmlns="http://www.w3.org/2000/svg">
<path d="M4.5 1.73438C4.67597 1.73451 4.84879 1.78108 5.001 1.86937L21.005 11.1354C21.1565 11.2233 21.2823 11.3495 21.3698 11.5013C21.4572 11.6531 21.5032 11.8252 21.5032 12.0004C21.5032 12.1756 21.4572 12.3477 21.3698 12.4995C21.2823 12.6513 21.1565 12.7775 21.005 12.8654L5.001 22.1314C4.84903 22.2194 4.67657 22.2658 4.50098 22.2659C4.32538 22.2661 4.15284 22.22 4.00069 22.1324C3.84855 22.0447 3.72218 21.9185 3.63429 21.7665C3.54639 21.6145 3.50008 21.442 3.5 21.2664V2.73438C3.5 2.46916 3.60536 2.2148 3.79289 2.02727C3.98043 1.83973 4.23478 1.73438 4.5 1.73438ZM12.792 13.4144L8.294 17.9124L13.993 14.6134L12.793 13.4134L12.792 13.4144ZM5.5 6.11837V17.8784L11.38 11.9984L5.5 6.11837ZM15.784 10.4204L14.206 12.0004L15.784 13.5774L18.508 12.0004L15.783 10.4214L15.784 10.4204ZM8.294 6.08438L12.794 10.5844L13.993 9.38437L8.294 6.08438Z" fill="white"/>
</svg>
